HIERARCHY
ROOT ui
{
	 OFFSET 0 0 0
	 CHANNELS 3 XPosition YPosition Z Position
	 EndSite
	 {
	 OFFSET 0 -1 0
	 }
}
ROOT li
{
	 OFFSET 0 0 0
	 CHANNELS 3 XPosition YPosition Z Position
	 EndSite
	 {
	 OFFSET 0 -1 0
	 }
}
ROOT ul
{
	 OFFSET 0 0 0
	 CHANNELS 3 XPosition YPosition Z Position
	 EndSite
	 {
	 OFFSET 0 -1 0
	 }
}
ROOT ll
{
	 OFFSET 0 0 0
	 CHANNELS 3 XPosition YPosition Z Position
	 EndSite
	 {
	 OFFSET 0 -1 0
	 }
}
ROOT tt
{
	 OFFSET 0 0 0
	 CHANNELS 3 XPosition YPosition Z Position
	 EndSite
	 {
	 OFFSET 0 -1 0
	 }
}
ROOT tb
{
	 OFFSET 0 0 0
	 CHANNELS 3 XPosition YPosition Z Position
	 EndSite
	 {
	 OFFSET 0 -1 0
	 }
}
ROOT td
{
	 OFFSET 0 0 0
	 CHANNELS 3 XPosition YPosition Z Position
	 EndSite
	 {
	 OFFSET 0 -1 0
	 }
}
ROOT v
{
	 OFFSET 0 0 0
	 CHANNELS 3 XPosition YPosition Z Position
	 EndSite
	 {
	 OFFSET 0 -1 0
	 }
}
ROOT bn
{
	 OFFSET 0 0 0
	 CHANNELS 3 XPosition YPosition Z Position
	 EndSite
	 {
	 OFFSET 0 -1 0
	 }
}
MOTION
Frames: 29
Frame Time: 0.002
6.091870069503784E-4	0.002025516986846924	0		0.40324337768554686	-2.36268310546875	0		-1.1052791748046875	-0.06898725128173828	0		-0.842985595703125	-2.3144921875	0		1.439294677734375	-0.5146369018554687	0		3.09804150390625	0.16303022766113281	0		4.5286708984375	0.17468505859375	0		5.57373974609375	-0.010992597579956055	0		-0.044899005889892575	5.9505751953125	0		
-0.009195165634155273	-0.00705535888671875	0		0.401876953125	-2.3648974609375	0		-1.108941650390625	-0.07233670806884765	0		-0.8812809448242187	-2.31302392578125	0		1.4167352294921876	-0.5152554931640625	0		3.075423583984375	0.16360951232910156	0		4.53388720703125	0.16780726623535155	0		5.5741591796875	-0.009635112762451171	0		-0.060412750244140626	5.9416015625	0		
0.00408615779876709	-0.01264322280883789	0		0.4005313415527344	-2.36610205078125	0		-1.10851513671875	-0.0717657470703125	0		-0.8457090454101562	-2.318207763671875	0		1.4340982666015625	-0.5197638549804687	0		3.067578125	0.15385881042480468	0		4.53428515625	0.16904791259765625	0		5.574578125	-0.008270997047424317	0		-0.17791673278808592	5.9339169921875	0		
-0.008362438201904297	-0.005651619911193848	0		0.3991735534667969	-2.367307373046875	0		-1.1080936279296876	-0.07119039154052734	0		-0.8839964599609375	-2.315734375	0		1.4176868896484376	-0.5135180053710937	0		3.08205908203125	0.15860345458984376	0		4.523681640625	0.1705192413330078	0		5.5749921875	-0.006924464225769043	0		-0.17625555419921876	5.93155615234375	0		
-0.007957098960876464	-0.004956833839416504	0		0.40392715454101563	-2.3626572265625	0		-1.1035933837890626	-0.06670656585693359	0		-0.8663845825195312	-2.31751220703125	0		1.4181483154296874	-0.512665771484375	0		3.096708740234375	0.17132635498046875	0		4.52822119140625	0.17862396240234374	0		5.57957421875	0.0022960569858551027	0		-0.045028305053710936	5.9523251953125	0		
0.012432123184204101	-0.004716806888580323	0		0.408676513671875	-2.357022705078125	0		-1.099127685546875	-0.06322890853881837	0		-0.86370556640625	-2.31496533203125	0		1.4216607666015626	-0.5089029541015625	0		3.057873291015625	0.16319332885742188	0		4.53061767578125	0.18073387145996095	0		5.5757919921875	-0.004349874973297119	0		-0.046233585357666016	5.9540244140625	0		
-0.001030248999595642	0.003252510070800781	0		0.431127685546875	-2.363801513671875	0		-1.1028062744140625	-0.0655850601196289	0		-0.8759647827148438	-2.308103271484375	0		1.4389986572265625	-0.5124738159179687	0		3.07323388671875	0.163824951171875	0		4.53098046875	0.18183834838867188	0		5.57617236328125	-0.003143457889556885	0		-0.060672195434570315	5.9439921875	0		
-0.006817910194396972	-0.0029758729934692384	0		0.40371112060546877	-2.36251171875	0		-1.1065225830078125	-0.06895694732666016	0		-0.8794794921875	-2.311454833984375	0		1.436322265625	-0.5156389770507812	0		3.079428955078125	0.15761074829101562	0		4.53202197265625	0.16886618041992188	0		5.576537109375	-0.002003124952316284	0		-0.19426971435546875	5.926537109375	0		
0.003307636022567749	-0.012580580711364746	0		0.4291349182128906	-2.36741064453125	0		-1.106171630859375	-0.06843621063232422	0		-0.8809881591796875	-2.312871337890625	0		1.416736328125	-0.51347509765625	0		3.069047119140625	0.17171022033691405	0		4.5206611328125	0.18410595703125	0		5.56790625	2.5982800126075743E-4	0		-0.1782167510986328	5.9357822265625	0		
-0.006147830009460449	-0.0017852269411087036	0		0.3798626403808594	-2.355716064453125	0		-1.1017564697265625	-0.06402510833740234	0		-0.8655835571289062	-2.316680419921875	0		1.425031494140625	-0.5159629516601563	0		3.080073974609375	0.159281494140625	0		4.542966796875	0.18454258728027345	0		5.57720703125	5.6074999272823334E-5	0		-0.04686224365234375	5.95650146484375	0		
3.035359978675842E-4	0.005630904197692871	0		0.43524301147460936	-2.359331787109375	0		-1.101450927734375	-0.0635505256652832	0		-0.863085205078125	-2.31423388671875	0		1.4435576171875	-0.5067115783691406	0		3.078624755859375	0.17207511901855468	0		4.53225830078125	0.1856311798095703	0		5.57750830078125	9.755910038948059E-4	0		-0.061192520141601564	5.9463515625	0		
0.010361743927001952	-0.004067996978759766	0		0.40766867065429685	-2.35818701171875	0		-1.1011705322265626	-0.06310259628295899	0		-0.8755363159179688	-2.307492431640625	0		1.44080078125	-0.5090444641113281	0		3.084738525390625	0.16564781188964844	0		4.539392578125	0.1802698974609375	0		5.5877822265625	0.001611346960067749	0		-0.04801935195922852	5.9585791015625	0		
-0.005319619178771972	-2.4382099509239196E-4	0		0.4319569091796875	-2.362199951171875	0		-1.105001953125	-0.06659615325927734	0		-0.879244384765625	-2.3109736328125	0		1.441078857421875	-0.5084851989746094	0		3.07502490234375	0.16851220703125	0		4.532763671875	0.18714881896972657	0		5.57803466796875	0.0026138830184936524	0		-0.0480969352722168	5.959056640625	0		
-0.005098227024078369	2.0054900646209717E-4	0		0.40430316162109375	-2.361132568359375	0		-1.10477734375	-0.0662069091796875	0		-0.8789071655273437	-2.310572998046875	0		1.4382406005859374	-0.5119029846191406	0		3.085934814453125	0.15487808227539063	0		4.537802734375	0.17971519470214845	0		5.578255859375	0.0033381500244140626	0		-0.17768125915527344	5.93727392578125	0		
0.004875617980957031	-0.00960292911529541	0		0.410750244140625	-2.353835693359375	0		-1.1004991455078126	-0.0619354248046875	0		-0.9006273803710938	-2.310733154296875	0		1.429499267578125	-0.5092361145019532	0		3.087760498046875	0.18539976501464844	0		4.53113623046875	0.1874800262451172	0		5.58261669921875	0.011914755821228027	0		-0.03106792449951172	5.9685390625	0		
0.01524476718902588	5.539960265159607E-4	0		0.4130488586425781	-2.35148876953125	0		-1.093191162109375	-0.05476021194458008	0		-0.85936083984375	-2.310275146484375	0		1.444781494140625	-0.5041249389648438	0		3.08141943359375	0.16303611755371095	0		4.54430419921875	0.1887654266357422	0		5.57860302734375	0.004609947204589844	0		-0.048350513458251955	5.96027587890625	0		
0.033211685180664065	-0.006489988803863526	0		0.40915509033203123	-2.356048095703125	0		-1.1002164306640625	-0.061313850402832035	0		-0.8740616455078125	-2.3056513671875	0		1.421884033203125	-0.5052394104003907	0		3.060687744140625	0.17094068908691407	0		4.522421875	0.18974992370605467	0		5.5787236328125	0.005165233135223389	0		-0.04846227645874023	5.96061181640625	0		
-0.0727292709350586	-0.0059247870445251465	0		0.407275146484375	-2.35768505859375	0		-1.10422119140625	-0.06496213531494141	0		-0.841057861328125	-2.3130791015625	0		1.4388692626953126	-0.5102440490722656	0		3.08160498046875	0.16391030883789062	0		4.52936328125	0.1840702362060547	0		5.57880078125	0.005671358108520508	0		-0.06283075714111327	5.95021630859375	0		
-0.004524505138397217	0.0018998780250549317	0		0.4073814392089844	-2.35739599609375	0		-1.1001063232421875	-0.060808940887451174	0		-0.877880859375	-2.309044921875	0		1.4220247802734376	-0.5045604858398437	0		3.0709072265625	0.1775186004638672	0		4.52734375	0.18253822326660157	0		5.5788291015625	0.0061309652328491214	0		-0.17924879455566406	5.93996044921875	0		
0.005239340782165527	-0.008060312271118164	0		0.409472412109375	-2.3551767578125	0		-1.1001259765625	-0.060591670989990236	0		-0.8649637451171875	-2.315095703125	0		1.4220184326171874	-0.5042679138183593	0		3.081601806640625	0.16462965393066406	0		4.54448291015625	0.19056056213378905	0		5.57880712890625	0.0065476131439208985	0		-0.04896704864501953	5.96143798828125	0		
0.005595498085021973	0.012164667129516601	0		0.4115303039550781	-2.3519794921875	0		-1.0961300048828124	-0.057477321624755856	0		-0.8717139892578125	-2.302743896484375	0		1.4250264892578124	-0.5010648193359375	0		3.0797841796875	0.17698123168945312	0		4.53341162109375	0.1911449432373047	0		5.57873876953125	0.0069263181686401365	0		-0.06244668579101562	5.94994482421875	0		
-0.004726154804229736	0.0025921850204467774	0		0.435363037109375	-2.35726416015625	0		-1.100302978515625	-0.06020465087890625	0		-0.8758549194335937	-2.306465576171875	0		1.441838134765625	-0.5051771850585938	0		3.081413330078125	0.16522779846191407	0		4.5401669921875	0.18531866455078125	0		5.578626953125	0.007271820068359375	0		-0.04944807815551758	5.96187841796875	0		
-0.004878004074096679	0.002792968034744263	0		0.4072655029296875	-2.35646142578125	0		-1.1004534912109376	-0.06002617645263672	0		-0.8780016479492188	-2.30823974609375	0		1.427869140625	-0.49665234375	0		3.0604111328125	0.1729344482421875	0		4.53796923828125	0.18365478515625	0		5.57847509765625	0.007586300849914551	0		-0.04970010757446289	5.96307763671875	0		
-0.005066339015960693	0.0029841029644012453	0		0.4071158752441406	-2.356263671875	0		-1.104724609375	-0.06376750183105469	0		-0.8781520385742188	-2.30806298828125	0		1.4384327392578125	-0.5086676940917969	0		3.0810673828125	0.16573318481445312	0		4.5267802734375	0.1841531524658203	0		5.57409716796875	-0.0010443309545516968	0		-0.17950738525390625	5.9400029296875	0		
-0.005286474227905274	0.003167418956756592	0		0.38203494262695314	-2.3505478515625	0		-1.1008602294921874	-0.05968265914916992	0		-0.8634328002929688	-2.312206298828125	0		1.426178955078125	-0.5102131652832032	0		3.083225341796875	0.1839066925048828	0		4.53070556640625	0.19130393981933594	0		5.582234375	0.016032033920288086	0		-0.16556829833984374	5.9508857421875	0		
0.014462766647338867	0.0029212799072265627	0		0.4128405456542969	-2.3490244140625	0		-1.093959716796875	-0.052663291931152344	0		-0.8616209716796875	-2.310078369140625	0		1.4241480712890624	-0.49998648071289065	0		3.080597900390625	0.16615127563476562	0		4.532478515625	0.19246990966796876	0		5.57781982421875	0.008334217071533203	0		-0.05058617782592773	5.96262744140625	0		
-0.0057994952201843265	0.003514178991317749	0		0.40847463989257815	-2.353767578125	0		-1.1013726806640625	-0.059346206665039064	0		-0.8767943115234375	-2.305593994140625	0		1.4407943115234374	-0.5041712646484375	0		3.0594833984375	0.17377105712890625	0		4.52808544921875	0.1867367706298828	0		5.57755322265625	0.00851769733428955	0		-0.06411781311035156	5.9510751953125	0		
0.003704817056655884	-0.006531497001647949	0		0.43209765625	-2.358111328125	0		-1.1016549072265625	-0.0591804313659668	0		-0.8791231689453125	-2.307385986328125	0		1.4205367431640625	-0.5025884094238281	0		3.080048828125	0.16648570251464845	0		4.51680615234375	0.18712307739257814	0		5.57727099609375	0.008669280052185058	0		-0.05113653945922852	5.9629609375	0		
0.0034117999076843262	-0.006375208854675293	0		0.4037950439453125	-2.357365966796875	0		-1.1019482421875	-0.05901669311523437	0		-0.8706450805664062	-2.317411865234375	0		1.437130859375	-0.5077999572753906	0		3.069034423828125	0.17985092163085936	0		4.5364677734375	0.1848265380859375	0		5.57697802734375	0.00878800106048584	0		-0.18186769104003905	5.94187158203125	0		
